<svg width="512" height="512" viewBox="0 0 512 512" fill="none" xmlns="http://www.w3.org/2000/svg">
<g clip-path="url(#clip0)">
<path d="M173.054 230.611C171.325 225.045 166.132 220.999 159.999 220.999H53.333C22.2581 221 -3 246.258 -3 277.333V448C-3 479.076 22.2582 504.333 53.333 504.333H117.333C140.519 504.333 160.487 490.251 169.122 470.197C186.937 478.611 209.546 483 224 483H419.819C444.354 483 465.985 466.462 471.089 443.4L471.09 443.397C473.47 432.591 472.403 421.696 468.23 411.987C483.535 403.156 493.667 386.642 493.667 368C493.667 360.986 492.262 354.22 489.583 347.984C504.886 339.138 515 322.643 515 304C515 291.335 510.317 279.468 502.158 270.338C511.471 259.078 516.129 244.521 514.753 229.424L514.752 229.421C512.103 200.635 486.262 178.333 456.128 178.333H328.479C335.026 157.843 344.333 123.838 344.333 96C344.333 72.025 334.161 50.035 320.897 34.0647C314.257 26.0701 306.785 19.5129 299.313 14.9352C291.878 10.38 284.247 7.66699 277.333 7.66699C254.371 7.66699 237.939 20.4332 236.867 21.2659L236.84 21.2873L236.822 21.3008L236.805 21.3145C233.551 23.9126 231.666 27.8486 231.666 32V103.682L173.054 230.611ZM466.664 327.345L466.653 327.346C461.398 327.973 456.941 331.544 455.246 336.604L455.244 336.611L455.242 336.618C453.577 341.667 454.97 347.215 458.848 350.875L458.851 350.878C463.68 355.422 466.334 361.505 466.334 368C466.334 379.915 457.322 389.96 445.352 391.345L445.342 391.346C440.087 391.973 435.63 395.544 433.935 400.604L433.933 400.611L433.931 400.618C432.266 405.667 433.659 411.215 437.537 414.875L437.539 414.877C443.775 420.752 446.278 428.951 444.39 437.497L444.389 437.498C442.107 447.851 431.913 455.667 419.82 455.667H224C215.72 455.667 204.431 453.708 193.939 450.475C183.336 447.207 174.162 442.825 169.676 438.329L169.666 438.319C165.752 434.434 159.863 433.295 154.79 435.367L154.782 435.37C149.665 437.478 146.333 442.48 146.333 448C146.333 463.986 133.319 477 117.333 477H53.333C37.3469 477 24.333 463.986 24.333 448V277.333C24.333 261.347 37.3469 248.333 53.333 248.333H146.333V256C146.333 260.738 148.797 265.131 152.826 267.636L152.844 267.647L152.862 267.658C156.847 270.059 161.849 270.3 166.092 268.233L166.106 268.226L166.12 268.219L187.442 257.557C187.444 257.557 187.445 257.556 187.447 257.555C190.226 256.178 192.433 253.878 193.737 251.08L193.742 251.07L257.742 112.403L257.746 112.395L257.749 112.387C258.561 110.601 258.999 108.642 258.999 106.666V39.5895C263.304 37.423 269.806 35 277.333 35C279.268 35 282.741 36.3297 287.181 39.5218C291.476 42.6101 296.247 47.1327 300.698 52.7577C309.623 64.0351 317 79.3978 317 96C317 114.344 311.987 136.934 306.869 155.171C301.992 172.548 297.096 185.713 296.589 187.076C296.579 187.103 296.571 187.125 296.565 187.142C294.983 191.318 295.527 196.038 298.068 199.753L298.075 199.763L298.082 199.773C300.643 203.452 304.845 205.667 309.333 205.667H456.128C472.586 205.667 486.197 217.428 487.53 231.933L487.53 231.937C488.553 242.94 483.275 253.414 473.758 259.29C469.567 261.864 467.084 266.514 467.274 271.455C467.465 276.404 470.311 280.827 474.671 283.09L474.682 283.096L474.694 283.101C482.729 287.186 487.666 295.208 487.666 304C487.667 315.914 478.657 325.96 466.664 327.345Z" fill="#ADB5BD" stroke="#ADB5BD" stroke-width="6"/>
<path d="M160 240.833C151.627 240.833 144.833 247.627 144.833 256V448C144.833 456.373 151.627 463.167 160 463.167C168.373 463.167 175.167 456.373 175.167 448V256C175.167 247.627 168.373 240.833 160 240.833Z" fill="#ADB5BD" stroke="#ADB5BD" stroke-width="9"/>
</g>
<defs>
<clipPath id="clip0">
<rect width="512" height="512" fill="white"/>
</clipPath>
</defs>
</svg>
