<svg width="58" height="70" viewBox="0 0 58 70" fill="none" xmlns="http://www.w3.org/2000/svg">
<g opacity="0.9">
<path d="M25.2461 4.60781C25.2461 4.60781 34.8615 6.20925 33.3106 6.98473C32.5466 7.36673 25.694 9.61715 25.1612 11.1868C24.6284 12.7564 24.6328 13.8602 25.1612 15.4313C25.7322 17.129 29.6939 17.8179 32.1646 19.9304C35.2149 22.5385 37.4816 25.3209 38.7435 27.8252C40.4604 31.2322 41.1629 32.4941 41.1629 37.2904C41.1629 38.5223 41.4529 39.4345 42.4362 40.1766C44.6858 41.8744 56.097 45.1002 56.6128 46.7556C56.8595 47.547 57.2491 48.0339 57.0373 48.8354C56.6512 50.2966 54.9132 49.9483 53.4295 50.236C49.287 51.0394 46.8624 44.6593 43.2003 46.7556C42.2921 47.2754 42.1348 48.1081 41.1629 48.4958C39.7211 49.0709 38.6799 47.5139 37.2155 48.0289C35.2465 48.7214 35.0232 50.5242 34.2019 52.4432C33.8513 53.2624 33.9669 53.8613 33.4804 54.6079C33.0836 55.2167 32.1646 55.9237 32.1646 55.9237C32.1646 55.9237 30.7527 58.6734 30.5092 60.5926C30.3653 61.7272 30.5092 63.5213 30.5092 63.5213C30.5092 63.5213 31.7855 62.8298 32.1646 63.2242C32.5436 63.6185 32.4928 64.1872 32.1646 64.6248C31.727 65.2083 30.297 64.6248 30.297 64.6248C30.297 64.6248 29.9478 65.4737 29.4906 65.4737C29.151 65.4737 29.15 64.4674 28.5992 64.2853C28.3446 64.2011 27.6782 65.318 26.9014 65.686C25.6866 66.2615 23.4634 65.8558 23.4634 65.8558C23.4634 65.8558 22.5307 64.8772 22.8267 64.2853C22.9965 63.9457 25.2692 64.6344 26.5619 63.9457C27.5653 63.4112 28.5992 61.8659 28.5992 61.8659C28.5992 61.8659 31.8262 57.5431 30.5092 55.1596C30.297 54.7755 24.5379 53.1073 21.8505 55.1596C19.8353 56.6986 19.0491 61.017 19.0491 61.017C19.0491 61.017 18.6516 62.4594 19.0491 63.2242C19.3249 63.7547 20.1527 64.2853 20.1527 64.2853C20.1527 64.2853 19.492 65.5744 18.7945 65.4737C18.4974 65.4309 18.331 64.5409 17.7758 64.2853C17.2205 64.0297 16.9621 66.4119 16.5449 67.8082C16.3675 68.4016 16.3382 69.3362 16.1204 69.3362C15.7384 69.3362 14.8885 68.9838 15.0169 68.4449C15.2291 67.5535 15.4838 65.8558 15.4838 65.8558C15.4838 65.8558 13.3191 67.5535 12.3428 67.8082C11.9281 67.9164 11.2753 67.9821 11.2753 67.5535C11.2753 66.8744 15.567 65.7508 16.6658 63.4364C18.6607 59.2344 20.8743 54.6079 20.8743 54.6079C17.9714 54.2715 14.707 52.4882 12.3853 50.7454C9.80752 48.8103 6.48544 45.1002 6.48544 45.1002C6.48544 45.1002 3.41567 41.4963 2.32584 38.7335C1.31663 36.1751 1.08892 34.5641 1.01005 31.815C0.917145 28.5762 1.47697 25.3634 2.32584 23.6231C2.735 22.7843 1.01005 22.5615 1.01005 21.6282C1.01008 15.6859 2.32584 16.4371 2.32584 13.5637C2.32585 12.0357 2.72811 9.36243 4.70276 6.98473C6.35495 4.9953 7.57134 4.24292 9.88103 3.0798C11.9882 2.01868 17.1391 1 17.1391 1C17.1391 1 20.7469 1.5633 21.808 2.01868C23.3526 2.68152 25.2461 4.60781 25.2461 4.60781Z" fill="#CED4DA" stroke="black"/>
<circle cx="18.7522" cy="8.72495" r="1.74024" fill="black" fill-opacity="0.72"/>
</g>
</svg>
