<svg id="Capa_1" enable-background="new 0 0 512.377 512.377" height="512" viewBox="0 0 512.377 512.377" width="512" xmlns="http://www.w3.org/2000/svg"><g><path d="m297.684 137.399c7.653 0 13.879 6.226 13.879 13.879 0 8.284 6.716 15 15 15s15-6.716 15-15c0-24.195-19.684-43.879-43.879-43.879s-43.879 19.684-43.879 43.879c0 8.284 6.716 15 15 15s15-6.716 15-15c0-7.653 6.225-13.879 13.879-13.879z"/><path d="m473.963 244.582v-68.896c0-80.459-65.458-145.917-145.916-145.917h-10c-61.903 0-114.443 40.838-132.103 96.987l-68.143 39.343c-10.062 5.809-16.068 16.213-16.068 27.831 0 11.617 6.007 22.021 16.068 27.83l61.799 35.679v28.189c0 60.299 23.637 117.144 66.557 160.064 42.921 42.92 99.766 66.557 160.064 66.557l81.704.128c13.379 0 24.263-10.884 24.263-24.263v-156.56c.001-34.365-14.74-65.348-38.225-86.972zm-341.161-48.803c-.265-.153-1.068-.617-1.068-1.85s.804-1.697 1.068-1.851l46.839-27.043c-.024 1.057-.04 2.116-.04 3.179v54.583zm134.569 228.7c-37.254-37.254-57.771-86.565-57.771-138.851v-117.413c0-59.797 48.648-108.445 108.446-108.445h10c30.817 0 59.887 12.098 81.853 34.063s34.063 51.035 34.063 81.854v48.741c-15.2-7.125-32.15-11.116-50.017-11.116-61.41 0-111.371 49.961-111.371 111.371v22.691c0 43.908 17.209 85.299 48.457 116.546 1.971 1.971 3.983 3.886 6.033 5.745-25.803-9.758-49.518-25.012-69.693-45.186zm214.818 57.898-40.323-.128c-33.762-1.413-65.401-15.322-89.62-39.542-25.582-25.581-39.67-59.438-39.67-95.333v-22.691c0-44.868 36.503-81.371 81.371-81.371 48.657 0 88.242 39.586 88.242 88.243z"/><path d="m127.387 103.944c2.813-2.813 4.394-6.628 4.394-10.606v-78.338c0-8.284-6.716-15-15-15h-79.937c-8.284 0-15 6.716-15 15v72.125l-17.262 17.262c-5.858 5.857-5.858 15.355 0 21.213 5.857 5.857 15.355 5.857 21.213 0l21.655-21.655c2.813-2.813 4.394-6.628 4.394-10.606v-63.339h49.937v57.125l-17.261 17.262c-5.858 5.858-5.857 15.355 0 21.213 2.929 2.93 6.768 4.394 10.606 4.394s7.678-1.465 10.606-4.394z"/></g></svg>