<svg width="512" height="512" viewBox="0 0 512 512" fill="none" xmlns="http://www.w3.org/2000/svg">
<path d="M256 512C114.84 512 0 397.16 0 256C0 114.84 114.84 0 256 0C397.16 0 512 114.84 512 256C512 397.16 397.16 512 256 512ZM256 36.5703C135.008 36.5703 36.5703 135.008 36.5703 256C36.5703 376.992 135.008 475.43 256 475.43C376.992 475.43 475.43 376.992 475.43 256C475.43 135.008 376.992 36.5703 256 36.5703Z" fill="#ADB5BD"/>
<path d="M347.43 365.715C342.75 365.715 338.07 363.93 334.5 360.355L151.645 177.5C144.5 170.355 144.5 158.785 151.645 151.645C158.785 144.504 170.359 144.5 177.5 151.645L360.355 334.5C367.5 341.645 367.5 353.215 360.355 360.355C356.785 363.93 352.109 365.715 347.43 365.715V365.715Z" fill="#ADB5BD"/>
<path d="M164.57 365.715C159.891 365.715 155.215 363.93 151.645 360.355C144.5 353.215 144.5 341.641 151.645 334.5L334.5 151.645C341.645 144.5 353.215 144.5 360.355 151.645C367.496 158.785 367.5 170.359 360.355 177.5L177.5 360.355C173.93 363.93 169.25 365.715 164.57 365.715V365.715Z" fill="#ADB5BD"/>
</svg>
